<?xml version="1.0" encoding="UTF-8"?>
<svg width="160px" height="47px" viewBox="0 0 160 47" version="1.1" xmlns="http://www.w3.org/2000/svg" xmlns:xlink="http://www.w3.org/1999/xlink">
    <!-- Generator: Sketch 51.3 (57544) - http://www.bohemiancoding.com/sketch -->
    <title>white-logo</title>
    <desc>Created with Sketch.</desc>
    <defs></defs>
    <g id="Revised-USA-August-3rd" stroke="none" stroke-width="1" fill="none" fill-rule="evenodd">
        <g id="Generation-USA-V2" transform="translate(-617.000000, -84.000000)" fill="#FFFFFE">
            <g id="Hero">
                <g id="Generation-USA-Logo" transform="translate(617.000000, 84.000000)">
                    <g id="white-logo">
                        <path d="M159.530742,17.0450728 C159.761413,17.8737779 158.908269,18.8720549 158.68947,19.7700536 C159.021908,20.5328454 158.771449,20.9238184 158.212862,21.8370278 C156.734417,24.2527229 156.120424,27.3996616 154.086784,30.1285859 C154.165371,28.4565282 155.134982,26.7027831 156.195053,25.2126913 C154.392085,26.4898324 153.433781,28.8745426 153.754912,30.5775852 C154.012721,30.6587093 153.82106,30.2677362 154.086784,30.1285859 C154.298233,30.1944992 154.079435,30.6975812 154.392085,30.3454801 C154.517032,30.5116719 154.122403,30.8598294 154.004806,30.87166 C153.774134,31.8124741 154.313498,32.5014655 154.657809,33.2986224 C154.71265,33.4186184 154.485936,33.5386145 154.51364,33.654667 C154.662332,34.2467602 155.56523,34.8585711 156.417809,35.4855927 C156.824311,35.3655966 157.289611,35.624743 157.735689,35.7453024 C156.468693,36.3796478 155.213569,37.0804698 153.723251,36.3019038 C153.429823,36.1943017 153.79788,35.9807876 153.719859,35.8376938 C152.413852,35.0439171 152.378233,34.0535271 151.616113,33.1746828 C151.881837,32.9228601 151.45159,32.609631 151.850177,32.5397741 C151.56523,31.3206593 151.705442,30.0356312 151.58841,28.789475 C152.311519,27.7438756 152.339223,26.811512 152.730459,25.8166151 C152.808481,25.5535252 152.448905,25.7816867 152.48,25.5259205 C153.49258,23.0606495 154.028551,20.7728375 155.006078,18.1486985 C154.388693,18.1486985 154.020636,18.5238974 153.473357,18.655724 C153.386855,18.6748783 153.109258,18.4777017 152.980919,18.5317845 C151.994912,18.9379683 151.45894,20.3818644 150.442968,20.7226983 C150.649894,20.0528612 151.471378,19.6038618 151.897102,18.8996597 C150.982332,19.0466971 150.27053,20.4939734 149.414558,21.0128296 C149.930177,19.6737187 151.259929,18.6399499 152.253286,17.3160498 C152.002827,17.1611253 151.819081,17.4090045 151.616113,17.5447747 C151.748975,16.824235 152.522968,16.4839645 152.90629,15.9498976 C151.170035,16.7549415 150.071519,18.8838855 148.323392,20.9198749 C148.608905,20.8928335 148.807915,20.3159511 149.062332,20.0720155 C149.398728,21.2100062 147.204523,22.3868688 147.197173,23.5558445 C147.662473,23.3659915 147.689611,22.363771 148.307562,22.5186955 C147.92424,22.9755819 147.752367,23.1265628 147.61159,23.6217578 C146.548127,23.8037236 146.755053,25.3518417 146.125795,26.1146335 C146.211731,26.3236407 146.090742,26.5636328 146.230954,26.7647529 C144.522403,29.6486017 143.384876,32.7915968 140.913074,35.5706603 C140.772297,35.4388336 141.045936,35.241657 140.905159,35.1058869 C140.385018,34.7966013 140.06841,35.7605132 139.599152,35.775724 C139.274629,35.5633366 139.490035,35.2608113 139.478163,34.9982848 C137.936961,35.0985632 137.479576,33.3296073 137.319011,32.4085108 C137.640141,32.020918 137.788834,31.452486 137.823887,30.9336298 C141.499929,26.3777234 143.196608,21.9147717 145.421908,17.4478765 C145.128481,17.5870268 144.776254,17.3470347 144.483392,17.4597071 C145.081555,16.8439527 145.609611,16.7476178 146.020071,16.1549613 C146.751095,15.1178123 146.555477,13.3297021 147.90106,12.3387488 C148.491307,12.6869064 149.046502,12.8339438 149.832367,13.5037809 C149.906996,14.087987 149.891166,14.6879673 149.781484,15.3037217 C149.949965,15.3769587 150.165371,15.7369469 150.27053,15.4270979 C150.352509,15.593853 150.266572,15.7837059 150.090742,15.9887696 C150.317456,15.9921497 150.474064,15.5589245 150.684947,15.4969548 C151.001555,15.5820224 150.563958,15.7837059 150.880565,15.86483 C151.138375,15.8141274 151.389399,15.6828641 151.623463,15.4851242 C151.87788,15.8028602 152.045795,15.60174 152.265159,15.7177926 C152.925512,14.93979 153.946572,14.2738964 155.060919,14.2812201 C155.30742,14.006863 155.221484,13.697014 155.58106,13.735886 C155.889753,13.8440514 155.752933,14.0220737 155.585018,14.200096 C155.980212,14.2581223 156.057668,14.006863 156.105159,13.6547619 C156.750247,14.358964 157.285654,14.0260173 157.688198,14.3398097 C157.958445,14.4169903 157.727774,14.0609457 157.986148,14.0919306 C158.177244,14.5290993 158.384735,14.9628878 159.056961,15.322876 C158.693428,15.7330033 159.139505,16.0197545 158.697385,16.4450926 C158.850035,16.5538214 158.998728,16.6619868 159.150813,16.7707157 C159.033781,17.0569034 158.982898,17.3278804 159.014558,17.5909703 C159.225442,17.6568837 159.354912,17.1926736 159.530742,17.0450728" id="Fill-1"></path>
                        <path d="M158.079435,23.1220559 C158.161979,23.288811 158.072085,23.4786639 157.899647,23.6837276 C157.571166,23.5558445 158.009329,23.3119088 158.079435,23.1220559" id="Fill-2"></path>
                        <path d="M156.195053,25.2126913 C155.135548,26.7027831 154.165371,28.4565282 154.086784,30.1285859 C153.82106,30.2677362 154.012721,30.6587093 153.754912,30.5775852 C153.433781,28.8745426 154.392085,26.4898324 156.195053,25.2126913" id="Fill-3"></path>
                        <path d="M142.109399,16.8980354 C142.207208,17.8929322 140.502615,19.0737384 140.616254,20.1920115 C140.897809,20.4167928 141.042544,19.7779406 141.284523,19.7548428 C140.736678,20.5367889 140.427986,21.8297041 139.614982,22.3401098 C138.844382,24.2758208 137.753781,26.1878705 136.016961,28.0227397 C135.868834,28.2666753 136.145866,28.4446976 136.119293,28.6689156 C135.716184,29.5055078 135.157032,29.3657941 134.730742,30.0857704 C134.429399,29.8305675 135.012297,29.8035262 134.855689,29.5978991 C134.128622,30.2209772 133.486926,31.4096705 132.790954,32.2496428 C133.354629,32.1335903 133.784311,31.1578478 134.394346,31.3319266 C133.917739,32.4355522 132.247633,33.3177767 131.301201,34.2738016 C131.231095,34.6613944 131.0547,35.0365934 130.660071,35.3075704 C130.449187,35.0715218 130.589399,34.7847707 130.79689,34.4867523 C130.128057,35.074902 129.393074,35.2219394 128.712367,35.7413589 C128.57159,35.6089689 128.845795,35.4117923 128.705018,35.280529 C127.359435,35.9768441 125.811449,35.1334916 124.453993,34.7425185 C122.761272,31.8547263 122.835336,27.9996419 125.701767,24.8408726 C126.245654,22.746857 127.703746,20.5869281 129.404947,18.5469952 C131.172297,16.4259383 132.40424,13.4767396 134.726784,12.7297219 C136.040707,13.7009575 137.061201,14.7150087 137.045936,15.8918713 C134.848339,17.4828049 133.052721,19.4140089 131.08636,21.9418131 C131.53583,22.2206771 132.368622,21.2838066 132.869541,20.466932 C132.99053,21.5007008 130.617102,22.3789818 130.886784,23.6335884 C130.167067,24.2718772 129.9053,24.7248201 129.318445,25.6076079 C129.545159,25.7698561 129.619788,24.9726992 129.878163,25.3208568 C129.068551,26.9889709 127.930459,27.9066872 127.120848,29.5398729 C127.484947,29.4159333 127.754629,28.7348289 128.082544,28.3945584 C128.024311,29.3117114 127.218657,30.3449168 126.995901,31.2896744 C127.765936,30.8829273 128.454558,30.5894158 129.232509,30.1437966 C130.319717,29.5207186 131.039435,28.432867 132.126643,27.6317666 C132.912509,27.0475605 134.143887,26.8109486 134.632933,25.6459165 C134.867562,25.4290222 135.137244,25.4487399 135.37583,25.2628305 C137.460353,22.8938944 139.31364,20.2928533 140.279293,17.6489966 C140.752509,17.5329441 140.842968,17.1847865 141.468269,16.6659304 C141.221767,16.3949534 141.112085,16.9639487 140.866148,16.6929717 C140.971307,16.209044 141.515194,16.0118674 141.847633,15.6749771 C142.363816,15.9189127 141.210459,16.9639487 141.327491,17.4867484 C141.644664,17.6298423 141.816537,16.8946552 142.109399,16.8980354 M139.544311,21.4888702 C139.978516,21.0629688 140.377102,20.0720155 140.306996,19.5069636 C140.040707,20.1689137 139.591237,20.8579051 139.544311,21.4888702 M137.178799,23.9158326 C137.362544,23.4899311 138.199293,22.9598077 137.780919,22.6268609 C137.636184,23.0488189 137.159011,23.520916 137.178799,23.9158326" id="Fill-4"></path>
                        <path d="M140.330177,23.8927348 C140.39689,24.3107492 140.115336,24.6707373 139.743887,24.8487596 C139.685654,24.5698956 140.178092,24.2059639 140.330177,23.8927348" id="Fill-5"></path>
                        <path d="M135.80212,30.050842 C135.892014,30.5116719 135.383746,30.6046266 135.289894,31.0609496 C134.988551,30.7978596 135.681131,30.3798452 135.80212,30.050842" id="Fill-6"></path>
                        <path d="M134.836466,30.7325097 C135.160989,30.8446187 134.699647,31.3398136 134.539081,30.9798255 C134.632933,30.863773 134.710954,30.6665963 134.836466,30.7325097" id="Fill-7"></path>
                        <path d="M125.920565,5.92093189 C127.34417,5.94797326 128.677314,7.62791797 128.775124,8.66901046 C127.83265,9.26899072 126.820071,9.53996771 126.518728,10.9489354 C125.697809,9.36926911 125.807491,7.64707226 125.920565,5.92093189" id="Fill-8"></path>
                        <path d="M120.919293,18.4039013 C121.325795,19.0038816 120.966219,19.7278014 121.228551,20.3508795 C121.091166,20.664672 120.939081,21.2449346 120.586855,21.3807048 C120.832792,21.6668925 120.970177,21.2607087 121.228551,21.6128098 C120.857102,22.2939142 120.262332,23.0065668 120.465866,23.5947164 C118.076042,26.8537641 115.24523,31.0654565 113.907562,34.7228009 C113.50106,34.5678764 113.086643,34.3706998 112.781343,34.8315297 C112.308693,34.6416768 112.816396,34.2968994 112.394629,34.0957793 C111.983604,33.8986026 111.674912,34.3436584 111.311378,34.4636545 C110.81894,33.7628325 110.631237,33.0197583 110.228693,32.3037256 C111.002686,29.94662 112.45682,27.4807857 113.450177,25.0887517 C114.052297,24.0239981 114.822898,23.1417736 115.343039,22.1975793 C115.491731,21.9226588 115.467986,21.6088663 115.612721,21.3576069 C116.223322,20.2928533 117.063463,19.4258395 117.482403,18.3419315 C117.732297,17.6878686 117.568339,16.8400091 118.491025,16.6540998 C119.511519,17.0997189 120.093852,17.637166 120.919293,18.4039013 M114.576396,31.7617716 C115.296113,30.5888524 116.56311,29.4666358 116.703887,28.2356904 C115.859223,29.3117114 114.858516,30.488574 114.576396,31.7617716" id="Fill-9"></path>
                        <path d="M120.986007,11.2120254 C120.617951,11.382724 120.699929,11.8779189 120.301343,11.9821409 C120.066714,11.3979347 120.399152,10.7280976 119.487774,10.2481134 C117.040283,10.252057 115.077314,13.2908302 112.715194,14.5600842 C111.686784,15.1138688 110.243958,15.1600644 109.258516,16.8946552 C109.903604,16.6580433 110.275053,15.6248379 111.080707,15.6789206 C109.844806,17.6140682 108.155477,19.6348467 106.501767,21.1136713 C106.955194,19.9328651 108.022615,19.1278212 108.671661,17.8506801 C106.982332,19.4838658 105.340495,21.3998591 103.760848,23.7378103 C104.151519,23.4978182 104.507138,23.0640297 104.875194,22.700098 C104.839576,23.6989383 103.686219,24.8797445 103.306855,25.9360478 C103.713357,25.9557655 103.994912,25.2126913 104.339223,24.8408726 C104.288339,25.1236802 104.104594,25.8087281 103.811166,25.7236604 C103.001555,27.3996616 103.205088,28.9207383 102.69682,30.5505438 C102.83364,30.5770218 102.954629,30.4925176 103.068269,30.3606909 C103.209046,31.0885543 102.172721,31.637832 101.988975,32.45865 C101.817102,33.8636742 101.852155,35.8258632 100.154912,36.5345722 C99.7054417,36.3835913 99.2870671,36.4264068 98.919576,36.7937186 C98.6261484,36.5154179 98.3836042,36.5193615 98.1648057,36.708651 C97.0578092,36.1745841 97.3122261,35.4236229 96.5263604,34.8394168 C96.5732862,34.2084516 96.3188693,33.6276256 96.4986572,32.9808864 C95.1615548,32.6946986 94.1563251,31.6924781 93.464311,30.7939161 C93.5542049,30.6508222 93.6712367,30.7009614 93.7616961,30.5466003 C93.1086926,29.8728196 93.2223322,29.0796063 92.6784452,28.3866714 C92.8469258,27.2988199 92.6428269,26.2656144 92.5766784,25.2126913 C92.6824028,24.8988988 92.4008481,25.4019809 92.2951237,25.1236802 C92.2719435,24.8836881 92.1622615,24.6555266 92.5065724,24.3575082 C92.2402827,24.484828 92.1893993,24.3186363 92.1272085,24.0865312 C90.9930742,25.4369093 90.9540636,26.6177155 89.7260777,27.9838677 C89.6633216,28.1038638 89.9335689,28.1737206 89.8431095,28.2976602 C88.3024735,31.2046068 86.0268551,33.2484832 83.6958304,34.4405566 C83.4029682,34.4056282 84.0797173,34.3397149 84.1616961,33.972403 C83.6375972,33.5695994 82.5622615,33.9600091 82.4214841,33.1786263 C82.1438869,32.9656756 81.9403534,33.2518634 81.6706714,33.0929954 C81.2483392,32.1837295 80.5444523,31.3206593 80.4308127,30.3606909 C80.5834629,28.9207383 80.7440283,27.4768422 80.9509541,26.025059 C82.5266431,23.6448556 83.1485512,20.9779011 84.99053,18.4816453 C85.5417668,17.7340642 86.1014841,16.6738174 86.7929329,15.8721537 C88.0638869,14.4012162 89.6282686,12.5128276 91.3566078,12.0367869 C92.4590813,12.8418309 93.6910247,13.6232136 94.4299647,14.4829036 C94.59053,14.7031781 94.5746996,14.9471137 94.4808481,15.2068235 C94.7980212,15.2299213 94.9857244,14.4519187 95.3763958,14.9358465 C95.4431095,14.7459936 95.8812721,14.5020579 95.5561837,14.3747382 C95.6935689,14.1116482 95.9553357,14.6186738 96.0802827,14.2930507 C96.385583,14.788809 96.7061484,14.6338846 97.0657244,15.0057033 C97.9262191,15.8879278 97.3320141,16.9138095 97.6718021,17.9667326 C97.3631095,18.3498186 97.2223322,18.7019197 97.2375972,19.0348665 C97.5626855,19.1627496 97.3908127,18.496856 97.6446643,18.6360064 C98.0313781,19.3289413 97.1872792,20.2156727 97.6016961,20.9041007 C97.4219081,21.1559234 97.4569611,21.3728177 97.179364,21.6359076 C97.1284806,21.7559037 97.3240989,21.8336476 97.429258,21.9299825 C96.7061484,22.9947362 96.9328622,23.9118891 96.2329329,24.9766428 C96.7174558,25.1236802 96.5534982,24.333847 96.8972438,24.0747006 C96.7762544,25.998581 95.6856537,28.0728789 96.0802827,29.9195787 C96.5614134,30.2677362 97.0385866,30.6125136 97.5197173,30.9567276 C98.0511661,30.8598294 98.3208481,29.8728196 98.4192226,29.4238203 C100.260636,24.8177748 103.830954,20.2579248 105.82106,15.5668116 C104.581767,15.9228562 103.388834,16.6005804 101.918869,15.5127289 C101.852155,14.9471137 100.987703,14.5020579 100.995618,13.9257389 C103.616113,12.5319819 106.22417,11.0379466 108.980919,10.4881055 C110.752226,7.15976436 112.574417,3.62579616 114.427703,0.397170027 C117.048198,2.0731712 114.161979,4.6043555 114.478587,6.6409082 C113.763392,7.37215174 113.990106,7.95692122 113.982191,8.57999931 C114.200989,8.69267166 114.373428,8.49098815 114.623322,8.81210434 C114.881696,8.56873207 115.194346,8.80083711 115.561837,8.79689358 C115.671519,8.79689358 115.808339,8.60309714 115.933852,8.60704067 C116.039011,8.6109842 116.13682,8.82393494 116.238021,8.82787847 C117.161272,8.84703277 118.65894,8.6611234 119.585583,9.16814896 C120.438163,9.63630257 120.950389,10.4571206 120.986007,11.2120254 M105.386855,19.1627496 C106.102615,17.9627891 107.43576,17.4828049 107.45159,16.5110059 C106.795194,17.3199933 105.782049,18.1256006 105.386855,19.1627496 M96.2487633,25.9056263 C96.3578799,25.688732 96.1701767,25.5185968 96.0881979,25.3287439 C95.8145583,25.5067662 96.2911661,25.5647924 96.0175265,25.7388712 C96.0961131,25.7935173 96.1701767,25.8470367 96.2487633,25.9056263 M94.2032509,15.5820224 C93.2726502,15.9189127 92.2798587,15.8687735 91.4855124,17.068734 C90.8913074,17.2619671 90.3400707,17.8619473 90.1721555,18.5396715 C88.2906007,19.8596281 87.5437456,21.7215386 86.1868551,23.4826074 C86.3553357,23.3969764 86.4881979,23.1259994 86.6719435,23.13783 C86.4293993,24.4110276 84.8689753,25.4954989 84.6190813,26.7185573 C84.5563251,26.7957378 84.5173145,26.9348882 84.6422615,26.845877 C84.7909541,26.4819453 84.8537102,26.4278626 85.1782332,26.4318061 C85.205371,27.004745 84.3612721,27.7089472 84.5291873,28.2627318 C88.3341343,25.1895935 91.9355477,19.9987784 94.2032509,15.5820224 M85.5265018,24.380606 C85.6904594,24.1406139 86.2224735,24.0206179 86.1518021,23.6871077 C85.9561837,23.7378103 85.4558304,24.0516028 85.5265018,24.380606" id="Fill-10"></path>
                        <path d="M106.916184,22.4448951 C106.454841,23.2076869 106.165371,23.9389304 105.465442,24.7327071 C105.441696,24.604824 105.422473,24.4729974 105.402686,24.3456776 C105.875901,23.7958366 106.591095,22.5339063 106.916184,22.4448951" id="Fill-11"></path>
                        <path d="M87.9819081,9.83404254 C87.9547703,10.1709329 87.7862898,10.6582408 87.4736396,10.8441501 C85.8312367,10.1050195 84.5563251,11.6767988 83.1372438,12.3190312 C83.0315194,12.5128276 83.0513074,12.6869064 82.8279859,12.8998571 C82.5469965,13.0621053 82.945583,12.5787409 83.0275618,12.4700121 C82.8511661,12.1990351 82.7889753,12.6711323 82.6131449,12.4007186 C81.3342756,13.6660291 79.9225442,14.0570021 78.6792933,15.5397702 C79.9971731,14.8231741 81.260212,13.7510967 82.5424735,12.810846 C82.3038869,13.7510967 80.9198587,14.27784 80.1882686,14.9042982 C78.5735689,17.3549218 75.9027562,19.7976583 74.084523,22.5727782 C74.1314488,22.2246207 74.0963958,21.9919523 73.6661484,22.0387113 C73.7831802,21.7328059 74.0138516,21.4077461 73.9906714,21.1249385 C73.6271378,21.868576 72.1373852,23.362048 72.7937809,24.1710355 C72.9893993,24.1130092 73.1929329,23.4899311 73.5134982,23.1919128 C73.4275618,23.950761 72.3053004,25.026782 71.8829682,26.0408331 C72.2973852,26.0836486 72.3912367,25.5067662 72.6219081,25.1929737 C72.3833216,26.6717982 71.5115194,28.247521 70.8664311,29.7916956 C70.6628975,29.9545071 71.2650177,29.9928157 71.0620495,30.1595708 C70.6589399,31.4175575 70.1037456,32.7025857 69.5174558,33.9915573 C68.8915901,33.7126933 69.1296113,33.2986224 69.0165371,32.9386342 C68.5783746,33.2867918 68.1956184,33.9836703 67.675477,33.813535 C67.620636,33.6433998 67.6477739,33.4608706 67.5934982,33.2907353 C67.3662191,32.9769428 67.2571025,33.4259421 67.0298233,33.112713 C66.6233216,32.6676572 66.5102473,32.1764058 66.0720848,31.7347302 C66.4316608,30.9567276 65.6226148,30.4694197 65.8922968,29.7680344 C65.970318,29.5635341 66.24,29.396779 66.3338516,29.1646739 C66.584311,28.5528631 66.7403534,27.8678152 67.0377385,27.2605113 C68.5981625,24.0820243 69.1771025,20.4359471 70.6860777,17.2501365 C70.7838869,16.638889 70.6080565,16.0659501 70.3423322,15.5087854 C70.7448763,15.0710533 71.2881979,15.547094 71.6873498,15.0980946 C72.2114488,15.6676534 73.0792933,15.481744 73.2048057,16.1938332 C73.689894,16.0000368 74.1512367,15.6439922 74.5809187,15.1138688 C77.3925088,14.2198137 79.9462898,11.6767988 82.7380919,10.6509171 C82.9065724,10.4497969 82.5893993,10.3219138 82.9178799,10.0931889 C83.6065018,9.72587709 84.99053,9.30391914 85.8351943,9.43912596 C86.6527208,9.56700908 87.2740636,9.1720925 87.9819081,9.83404254 M79.6528622,12.7950718 C79.3441696,12.5319819 79.1717314,13.1477363 78.9060071,13.1781578 C79.210742,13.3837849 79.4024028,12.9111244 79.6528622,12.7950718 M78.0381625,15.3071018 C78.229258,14.9899292 78.5537809,14.9780986 78.4016961,14.6530389 C78.3157597,14.8659896 77.9086926,15.1290795 78.0381625,15.3071018 M75.5782332,18.0168718 C76.0706714,17.1611253 76.9780919,16.6811411 77.255689,15.8952515 C76.7084099,16.1510177 75.6641696,17.6489966 75.5782332,18.0168718" id="Fill-12"></path>
                        <path d="M85.1115194,12.4778992 C84.6349117,13.6040593 83.0671378,13.8136299 82.1981625,14.8586659 C81.9324382,15.1797821 81.5536396,15.8372252 81.0527208,16.1008785 C80.9628269,16.1470742 80.6931449,16.0349652 80.5834629,16.1087656 C80.2476325,16.32904 79.8286926,16.909866 79.3594346,17.2968955 C78.8081979,17.7537819 78.1122261,17.9357477 78.139364,18.4850254 C77.709682,18.4698147 77.4043816,19.2128888 77.0289753,19.5221744 C78.4367491,16.4219947 81.2992226,15.1910493 83.4459364,13.0001355 C83.8761837,13.3178715 84.5563251,12.6559215 85.1115194,12.4778992" id="Fill-13"></path>
                        <path d="M80.8729329,16.6619868 C80.4228975,17.141971 80.4624735,17.7306841 79.934417,17.9396913 C80.1181625,17.5368876 80.2159717,16.6890282 80.8729329,16.6619868" id="Fill-14"></path>
                        <path d="M78.3231095,18.3886906 C78.3310247,18.6517805 78.1631095,18.9458553 77.924523,19.2478172 C77.654841,18.8258593 78.014417,18.6320628 78.3231095,18.3886906" id="Fill-15"></path>
                        <path d="M77.6079152,19.3638697 C77.6508834,19.654001 77.455265,20.2889097 77.0561131,20.1148309 C77.0210601,19.7897712 77.420212,19.5959748 77.6079152,19.3638697" id="Fill-16"></path>
                        <path d="M76.6456537,20.5097475 C76.9741343,20.6370673 76.5438869,20.9317055 76.4460777,20.9429727 C76.2702473,20.8697357 76.4539929,20.4207364 76.6456537,20.5097475" id="Fill-17"></path>
                        <path d="M68.8407067,15.3420303 C69.0442403,15.5127289 69.1731449,15.1949929 69.4038163,15.5200526 C68.2385866,17.7261772 66.8619081,22.2556056 64.0740636,23.40092 C63.8937102,23.6059836 64.0740636,23.7535844 63.8937102,23.9625916 C63.2056537,24.4155345 62.5175972,24.8718575 61.8527208,25.4757813 C59.9525088,25.4256421 59.6240283,28.4790627 58.419788,29.667756 C58.1144876,28.7387725 58.779364,27.658808 59.0139929,26.6487004 C57.3597173,28.2818861 57.5044523,30.20971 57.8097527,31.7583914 C58.9902473,32.2496428 60.5156184,31.4096705 61.8487633,30.5313895 C63.0530035,29.7370495 64.2889046,28.5646937 65.5208481,27.4306465 C65.6966784,27.6706386 65.5208481,27.9647134 65.775265,28.1894948 C64.070106,29.9770416 63.7489753,32.3927367 62.220212,34.1307077 C62.1659364,34.2467602 62.3615548,34.3284477 62.4667138,34.4247825 C61.7549117,34.8658948 61.0860777,35.6016452 60.265159,35.3655966 C59.8739223,35.710374 59.4985159,36.1785276 58.9942049,35.8298067 C59.1898233,35.6365736 59.6121555,35.5937581 59.5884099,35.3385553 C58.814417,35.5475625 57.7192933,35.3999617 56.7338516,35.1177175 C56.1984452,34.962793 56.2725088,34.5295678 55.8931449,34.0495836 C55.3458657,33.3605922 54.5481272,33.0079277 55.0015548,32.2614734 C54.5012014,32.0716205 54.7477032,31.7696586 54.3525088,31.564595 C54.6227562,31.2784072 54.684947,31.0265845 54.7007774,30.7787053 C54.2473498,29.6097297 54.939364,28.2593516 54.9077032,27.0238993 C55.8422615,25.1507215 56.9413428,22.9676948 57.7000707,21.3345091 C58.3491166,20.9277619 58.2320848,20.4708756 58.8613428,19.7587863 C59.0060777,19.5576662 58.7906714,19.4140089 58.7754064,19.2399302 C59.9717314,17.796034 60.7225442,16.1938332 61.9267845,14.9589443 C62.4825442,13.5499766 64.3086926,13.1201316 65.3371025,11.9010168 C65.8725088,12.0401671 66.3259364,11.653701 66.8347703,11.5990549 C67.1236749,11.7308815 66.8426855,11.8429905 66.7448763,11.8812991 C66.9868551,11.8970732 67.0846643,12.2919898 67.5968905,12.6097258 C69.0674205,12.8649287 68.9973145,14.4051597 68.8407067,15.3420303" id="Fill-18"></path>
                        <path d="M59.5024735,29.2998808 C59.7291873,29.4705794 59.3187279,29.9195787 59.1349823,29.9545071 C59.0060777,29.7764848 59.4165371,29.5128315 59.5024735,29.2998808" id="Fill-19"></path>
                        <path d="M56.3471378,21.279863 C56.4992226,21.6088663 55.9559011,22.0499785 55.7252297,22.4409516 C55.5844523,22.0967375 56.0808481,21.4849267 56.3471378,21.279863" id="Fill-20"></path>
                        <path d="M5.63731449,18.4191121 C5.75434629,18.3109467 5.91038869,18.4117884 6.03590106,18.3419315 C7.20113074,16.5538214 8.5540636,15.0288012 9.4575265,13.6851834 C8.03787986,14.9358465 6.81780919,17.0760577 5.63731449,18.4191121 M18.0172438,27.817676 C17.2941343,28.9320055 16.0424028,30.3415366 15.6438163,31.4755838 C14.7166078,31.9628917 13.9465724,33.4614339 12.9961837,33.8174786 C11.4792933,35.8376938 9.76226148,36.596542 8.07293286,37.5097514 C6.71208481,37.2697593 5.54289753,38.2263475 4.17413428,37.9159352 C3.7795053,37.7345327 4.04918728,37.4477816 4.12777385,37.1925787 C3.13441696,36.9486431 2.33272085,36.5227416 1.7735689,35.4968599 C1.37441696,34.7616728 1.27321555,33.2293289 0.920989399,32.2378122 C0.764381625,31.8006435 0.58459364,31.2316482 0.522402827,30.5736417 C0.42459364,29.5364927 0.615689046,28.8125729 0.42459364,27.8599282 C1.60565371,22.5186955 4.21371025,15.5318832 9.44565371,10.2289591 C11.6313781,8.01832765 14.1031802,5.39418866 16.679576,4.18296092 C17.3602827,4.1553562 18.2122968,3.8770555 19.1236749,4.33337851 C20.1170318,4.83308037 20.9893993,5.70403762 21.4818375,6.49330742 C20.8797173,6.93103949 20.1990106,6.86118264 19.5380919,6.93103949 C18.9246643,7.29497118 18.3259364,7.76312478 17.6729329,7.88706437 C14.0172438,10.6548606 10.3994346,13.6818032 7.06826855,18.5120668 C7.11519435,19.6387903 6.41130742,20.3238381 5.85215548,21.430844 C5.42982332,22.2629293 5.25003534,23.3316265 4.89780919,24.3028621 C4.23689046,26.1495619 3.67378092,27.976544 3.52904594,29.6367711 C3.72466431,29.7415564 3.83830389,29.3156549 4.05314488,29.555647 C3.36508834,30.1516837 4.05314488,30.5313895 3.36508834,31.1274262 C3.58388693,32.1989403 3.75971731,33.2828483 3.74840989,34.3937976 C5.41003534,34.7616728 6.83759717,32.8265253 8.77342756,31.3477007 C9.14431095,31.0654565 9.67632509,30.7437769 10.3332862,30.1747815 C12.8672792,27.9917548 16.409894,23.8848477 17.7436042,20.5756608 C15.6319435,20.6686155 13.8018375,22.5609476 11.7727208,23.1688149 C11.3498233,22.7581242 10.9902473,22.746857 10.6425442,22.8127703 C9.55533569,22.092794 10.2433922,21.1018407 9.44169611,20.3390489 C13.6921555,16.638889 18.2790106,15.0749968 22.7759717,12.9421093 C24.8175265,12.6908499 26.8392933,12.2998769 29.0052297,12.8378873 C29.400424,13.1860449 29.7566078,13.313928 30.104311,13.3950521 C30.6165371,14.0727763 31.3125088,14.7150087 30.8472085,15.5437138 C33.0798587,14.3629076 35.1525088,12.1838244 37.5575972,12.1021369 C38.6442403,12.8418309 39.7201413,13.584905 39.8801413,14.4671295 C39.2740636,15.6789206 38.875477,16.6659304 37.8312367,18.0439132 C37.8662898,18.217992 37.5417668,18.4467168 37.9132155,18.5667129 C37.4987986,19.3987982 36.7830389,20.6719957 35.8682686,21.3418328 C35.8173852,21.6590055 36.1730035,21.0550817 36.3375265,21.3378893 C35.9191519,21.8066062 35.5669258,22.6888307 35.0586572,22.5998196 C35.0077739,22.363771 35.1836042,22.092794 35.4069258,21.81393 C34.5306007,22.9479771 33.2443816,23.5327466 32.7400707,24.4887715 C32.6733569,24.3687754 32.7163251,24.2296251 32.8101767,24.0825877 C30.4638869,26.3658928 27.9886926,27.8334501 25.4428269,28.8863732 C25.4744876,29.9426765 25.3925088,31.022641 25.415689,32.0834511 C28.059364,31.8158543 30.4638869,30.0238006 32.9509541,28.781588 C33.8742049,27.8599282 34.980636,27.4537443 35.9072792,26.6565875 C37.1041696,25.6267622 37.9250883,24.7096093 39.219788,23.4166941 C39.8021201,22.8319246 40.4274205,22.4679929 40.740636,21.980685 C41.4677032,20.8387508 41.6203534,19.4799223 42.4531449,18.3886906 C42.9891166,16.5110059 44.6513074,14.4558623 44.4359011,12.6942301 C45.1787986,12.4350837 46.0743463,13.1319622 46.9659364,13.8288406 C46.840424,14.0919306 47.0281272,14.3082615 47.0168198,14.5521971 C47.6189399,14.2699529 48.2091873,13.9020777 48.8039576,13.5420895 C48.8661484,13.6660291 48.8271378,13.8057428 48.7332862,13.9522169 C50.8766078,12.845211 53.5903887,11.5641264 55.9089753,14.2969942 C55.7371025,14.5257191 56.0497527,14.6761367 55.8072085,14.9121853 C58.2083392,16.1898897 57.6141343,18.6050215 55.8230389,20.0956766 C55.3181625,21.3649306 54.0048057,22.8826272 53.4060777,24.3299035 C52.425159,26.1140701 50.485371,27.2407936 50.2976678,28.8705991 C51.9598587,27.6047253 52.6908834,25.4836683 54.055689,23.7648517 C53.7735689,25.1817064 52.5382332,26.7495422 51.6777385,28.2593516 C51.4391519,28.3055473 51.2440989,28.6148329 50.989682,28.5646937 C50.934841,29.4514251 50.2778799,29.6136732 50.2818375,30.4688564 C50.4542756,30.5618111 50.5594346,30.2412582 50.7313074,30.3336496 C50.8766078,29.5748013 51.6387279,28.8046858 51.8303887,28.3669537 C52.2329329,28.8587685 51.8072085,29.1528433 51.4589399,29.8226805 C51.9790813,29.8536654 52.3544876,28.9905952 52.8508834,28.8705991 C52.0848057,30.6046266 51.2712367,32.4625936 49.6876325,33.4884753 C49.0928622,33.1166566 48.5885512,33.3177767 48.0723675,33.4727012 C46.6018375,32.5938569 47.0908834,31.4096705 46.770318,30.3528039 C47.2124382,28.9094711 48.2448057,27.7748605 48.7412014,26.2537838 C49.1714488,24.92256 49.4530035,23.5710552 50.0551237,22.2589857 C50.2586572,21.8066062 50.4344876,21.3609871 50.3717314,20.8810029 C51.1185866,19.6737187 51.6816961,17.9898305 52.2448057,16.600017 C50.809894,16.1628483 49.7854417,18.3188337 48.5224028,18.9728967 C47.7320141,20.3238381 46.1953357,21.0978972 45.3077032,22.3986994 C44.4200707,23.6989383 44.1583039,25.2318456 43.2079152,26.5168738 C42.9970318,26.7957378 43.2938516,26.9929144 43.254841,27.2407936 C42.5079859,27.5579663 42.2891873,28.2317469 41.8510247,28.9905952 C42.1676325,28.9939753 42.3440283,28.1348487 42.7075618,28.4565282 C42.0387279,29.8576089 40.9045936,31.6536061 40.4161131,33.4687576 C39.7591519,34.1228206 38.8873498,33.4298857 38.0811307,33.1667957 C37.1934982,32.5747026 37.2172438,31.8395155 36.3646643,31.2389719 C36.5133569,30.5077283 36.5563251,29.7916956 36.4313781,29.1027042 C37.4908834,27.6086688 38.2145583,26.1647727 39.090318,24.6977787 C37.56947,25.9056263 36.1927915,28.0114725 34.6402827,29.0131296 C34.7929329,28.8277836 34.8675618,28.6463811 34.7889753,28.4948368 C34.7183039,28.6768027 34.2999293,28.9167948 34.5893993,29.0446779 C34.4718021,29.1184783 34.3547703,29.1838282 34.2337809,29.245798 C34.0342049,29.5207186 33.8306714,29.7956391 33.6277032,30.0705596 C33.4987986,30.14436 33.8187986,30.3916758 33.909258,30.3257625 C32.1300353,32.8693407 29.6740636,35.5165776 27.0501767,36.0162794 C27.0072085,35.4816491 26.044947,35.3075704 25.6893286,35.4968599 C24.7389399,34.7036466 24.6021201,35.280529 23.495689,34.3746433 C23.570318,34.2743649 23.6443816,34.1735232 23.7184452,34.076625 C23.4408481,33.8755048 23.1592933,33.6738213 22.8816961,33.4727012 C21.6146996,31.4096705 21.7673498,29.125802 22.3542049,26.77264 C22.5062898,26.462791 22.7296113,26.6019414 22.8935689,26.3585691 C23.8009894,22.7006613 27.4922968,19.5458356 30.0455124,16.0000368 C30.0104594,15.3189324 30.0065018,14.629941 29.6621908,13.9989759 C27.5510954,12.8221132 26.0613428,15.5707551 24.2504594,16.302562 C23.4289753,17.6219552 22.4005654,17.6219552 21.5440283,18.7216374 C21.4190813,18.6399499 21.2822615,18.4737582 21.1844523,18.5779801 C20.7621201,19.3948546 21.3410601,20.0607482 20.3556184,20.9660705 C20.1837456,21.2488781 20.7587279,20.850018 20.5862898,21.1288821 C20.3279152,21.8370278 19.530742,22.6229174 19.0575265,23.3626114 C19.6517314,23.4048635 19.3860071,22.858966 19.820212,22.6460152 C19.9372438,22.5846088 19.3860071,23.2927545 19.3424735,23.4516225 C19.3034629,23.5834492 19.5228269,23.6296448 19.4600707,23.7648517 C19.0185159,24.7135528 18.3259364,25.7078863 18.0483392,26.3118101 C19.675477,25.4447964 20.5942049,22.0888505 21.7594346,20.4827062 C21.6497527,21.7406929 20.9696113,23.0876908 20.3674912,24.4228582 C19.5929329,25.4526834 18.7912367,26.4864522 18.8890459,27.3799439 C18.474629,27.856548 18.1031802,28.6345505 17.6537102,28.901584 C17.8996466,28.5218782 17.8414134,28.1894948 18.0172438,27.817676 M18.0172438,27.8137325 C18.08,27.7247213 18.130318,27.6396537 18.1812014,27.5545861 C18.1110954,27.6435972 18.0562544,27.7326084 18.0172438,27.8137325 M36.0712367,15.8608864 C35.0196466,15.6056836 33.6706714,17.0878883 32.4896113,17.412948 C29.9437456,19.6849859 28.0316608,21.7209753 26.0805654,24.8639704 C29.5570318,22.8048833 33.1233922,19.9210345 36.0712367,15.8608864 M16.1792226,29.3308657 C16.5314488,28.4875131 16.9769611,28.3477994 17.3173145,27.6238796 C16.7428975,27.7979584 16.1831802,28.8317272 16.1792226,29.3308657 M15.1276325,29.4936772 C15.5222615,29.8649326 15.9095406,28.8396142 15.7376678,28.6689156 C15.4012721,29.0598887 15.4363251,29.2497416 15.1276325,29.4936772 M10.6267138,34.9825106 C12.374841,32.7527249 14.4825442,30.9296863 15.5222615,28.1697771 C13.9228269,30.3066082 11.5612721,32.6518831 10.6267138,34.9825106 M5.08946996,20.4167928 C5.18727915,19.9830043 5.90303887,19.4489374 5.74303887,19.0540208 C5.39816254,19.5261179 4.93681979,20.0218763 5.08946996,20.4167928" id="Fill-21"></path>
                        <path d="M42.7386572,27.7866911 C43.0671378,27.9185178 42.5820495,28.2818861 42.4802827,28.2937167 C42.3909541,28.1889314 42.5040283,27.7247213 42.7386572,27.7866911" id="Fill-22"></path>
                        <path d="M38.4571025,17.3509782 C38.6719435,17.1577452 38.9184452,17.1538016 39.2113074,17.4321023 C38.4452297,17.7808233 38.8285512,18.7869873 37.9601413,19.2900694 C37.7532155,18.7019197 38.7386572,17.9278607 38.4571025,17.3509782" id="Fill-23"></path>
                        <path d="M34.7889753,28.4948368 C34.8675618,28.6463811 34.7929329,28.8277836 34.6402827,29.0131296 C34.6244523,29.0249602 34.6052297,29.0328473 34.5893993,29.0446779 C34.3004947,28.9167948 34.7183039,28.6768027 34.7889753,28.4948368" id="Fill-24"></path>
                        <path d="M34.6402827,29.013693 C34.6323675,29.0249602 34.6204947,29.0407344 34.6091873,29.052565 C34.6012721,29.0486214 34.5973145,29.0486214 34.5893993,29.0446779 C34.6052297,29.0334107 34.6244523,29.0249602 34.6402827,29.013693" id="Fill-25"></path>
                        <path d="M18.0172438,27.8137325 C18.0562544,27.7326084 18.1110954,27.6435972 18.1817668,27.5545861 C18.1308834,27.6396537 18.08,27.7247213 18.0172438,27.8137325" id="Fill-26"></path>
                        <path d="M157.04424,42.3101568 C153.391943,41.9552389 150.136537,41.7772166 146.866431,41.9659428 C145.468834,42.0465035 144.060495,42.0414332 142.656113,42.0369263 C138.941625,42.0245324 135.226007,41.9997445 131.511519,41.9625626 C128.697668,41.9338312 125.890601,41.7552455 123.068269,41.8177786 C118.740353,41.9146769 114.401131,41.7879205 110.066431,41.7698929 C108.208622,41.7620058 106.349682,41.7614425 104.494134,41.8082015 C101.909258,41.8741148 99.3272085,41.9890406 96.7434629,42.0814319 C93.9906714,42.1805836 91.2373145,42.2791719 88.4839576,42.3760701 C86.0669965,42.4611377 83.6511661,42.5980346 81.2325088,42.6149355 C77.4111661,42.6419769 73.5864311,42.57212 69.7639576,42.5726834 C65.5423322,42.5732467 61.3218375,42.6177523 57.100212,42.6239493 C52.6535689,42.6307096 48.2063604,42.6205691 43.7591519,42.6042316 C42.7465724,42.6002881 41.7317314,42.5095868 40.7191519,42.5095868 C38.470106,42.5101502 36.2312367,42.7602828 33.9731449,42.6059217 C33.4693993,42.5715566 32.96,42.610992 32.4534276,42.6183157 C29.8657244,42.6549342 27.2791519,42.7000031 24.6914488,42.724791 C24.0180919,42.730988 23.3413428,42.645357 22.6679859,42.6543708 C19.9129329,42.6892992 17.1578799,42.7473255 14.4028269,42.7912677 C13.3919435,42.8076052 12.3804947,42.8030983 11.3696113,42.8177457 C10.9201413,42.8239427 10.4661484,42.8278862 10.0223322,42.8785888 C7.69413428,43.1416787 5.35349823,43.2887161 2.95010601,43.2706886 C3.00833922,43.8013753 3.04791519,44.3078375 3.12424028,44.8103562 C3.20169611,45.3235787 3.30742049,45.8362379 3.85922261,46.3359398 C4.50600707,46.4626962 5.27434629,46.7376167 6.03420495,46.7331098 C7.26162544,46.7257861 8.48565371,46.5455104 9.70798587,46.418754 C10.8189399,46.3038282 11.9242403,46.1545373 13.0357597,46.0390482 C13.4236042,45.9984861 13.8363251,46.0643994 14.2128622,45.9951059 C17.0781625,45.4677993 20.0226148,45.5545571 22.9257951,45.3247055 C23.2582332,45.2982275 23.5985866,45.3303391 23.9355477,45.3376628 C24.8327915,45.3562537 25.7322968,45.4165334 26.6267138,45.3889287 C29.8838163,45.2892137 33.1363958,45.0255604 36.4031095,45.34893 C37.6870671,45.4762498 38.9597173,45.7089182 40.2600707,45.5517402 C40.475477,45.5258256 40.7095406,45.5765282 40.9317314,45.6103299 C43.2785866,45.9652478 45.6361837,46.0215839 48.0039576,45.9246857 C48.8452297,45.8903207 49.700636,45.8576457 50.535689,45.9404598 C52.179788,46.1038348 53.7939223,45.9331361 55.410318,45.8103233 C57.7498233,45.6632859 60.7332862,45.3680843 63.7913781,45.1010509 C64.2340636,45.0649957 64.7123675,45.0233069 65.1301767,45.1218952 C66.1342756,45.3573804 67.1366784,45.2925938 68.1475618,45.3038611 C69.3828975,45.3179451 70.6221908,45.3540003 71.8535689,45.4520252 C73.1968905,45.559064 74.5289046,45.7939858 75.8727915,45.8931375 C80.1441696,46.2074933 84.4195053,46.439035 88.6987986,46.2266476 C90.099788,46.1573541 91.4962544,46.0345413 92.8966784,45.956234 C94.6334982,45.8587724 96.3782332,45.6492018 98.1093993,45.7269457 C101.224594,45.8666595 104.283816,45.4959674 107.369046,45.3810416 C109.387986,45.3061145 111.400707,45.1489366 113.417385,45.0458414 C115.324947,44.9478165 117.23477,44.8779596 119.142332,44.7850049 C120.151519,44.7359924 121.159011,44.6700791 122.165936,44.6030391 C123.675477,44.501634 125.184452,44.3889616 126.693993,44.2892466 C127.643816,44.2267134 128.59477,44.1703773 129.54629,44.1275618 C131.45159,44.0413674 133.36424,44.0165795 135.26106,43.8684154 C136.329611,43.7850378 137.381201,43.7332085 138.455406,43.7901081 C139.464594,43.8436275 140.496396,43.9089774 141.48636,43.7968684 C143.273498,43.5946216 145.064028,43.5365953 146.863604,43.5196945 C147.426148,43.5146242 147.989823,43.5146242 148.548975,43.4774423 C150.171025,43.3692769 151.548269,42.9636564 153.164664,42.8138022 C154.137668,42.7236643 154.873216,42.7715501 155.880707,42.6070484 C156.067279,42.5766269 156.567633,42.5484588 157.04424,42.3101568 Z M96.7445936,44.4374107 L96.1837456,44.7309222 L95.2480565,44.7872584 C95.2480565,44.7872584 93.8628975,44.5805046 95.0982332,44.3737508 L95.9214134,44.3737508 L96.7445936,44.4374107 Z M102.922968,44.6441645 L101.878163,44.937676 L100.13682,44.9940121 C100.13682,44.9940121 97.5592933,44.7872584 99.8580919,44.5805046 L101.390247,44.5805046 L102.922968,44.6441645 Z" id="Fill-27"></path>
                        <path d="M64.4257244,46.0542589 L65.9578799,46.0542589 L67.4900353,46.1184822 L66.4452297,46.4119936 L64.7038869,46.4683298 C64.7038869,46.4683298 62.1269258,46.261576 64.4257244,46.0542589" id="Fill-28"></path>
                        <path d="M28.015265,45.3765347 L31.495689,44.892607 L34.9845936,44.4717758 L32.6530035,45.0926004 L28.7061484,45.6982143 C28.7061484,45.6982143 22.8245936,46.3077717 28.015265,45.3765347" id="Fill-29"></path>
                        <path d="M73.1957597,45.791169 L76.7084099,45.6999044 L80.2233216,45.672863 L77.8357597,46.0283443 L73.845371,46.188339 C73.845371,46.188339 67.9315901,46.1342563 73.1957597,45.791169" id="Fill-30"></path>
                        <path d="M43.0609187,45.9951059 L39.9485512,46.1567908 L36.8271378,46.1584808 L38.91053,45.3179451 L42.4407067,44.9940121 C42.4407067,44.9940121 47.7031802,45.2379478 43.0609187,45.9951059" id="Fill-31"></path>
                        <path d="M21.3252297,46.0542589 L27.1683392,46.0542589 L33.0114488,46.1596076 L29.0278445,46.6407185 L22.3875618,46.7336732 C22.3875618,46.7336732 12.5608481,46.3939661 21.3252297,46.0542589" id="Fill-32"></path>
                        <path d="M60.6891873,45.6407514 L61.5123675,45.6407514 L62.3361131,45.7049746 L61.7746996,45.9979227 L60.8390106,46.0542589 C60.8390106,46.0542589 59.454417,45.8475052 60.6891873,45.6407514" id="Fill-33"></path>
                        <path d="M30.7380919,45.5246989 L31.5612721,45.5246989 L32.3844523,45.5889221 L31.8230389,45.8818702 L30.8873498,45.9382064 C30.8873498,45.9382064 29.5033216,45.7314526 30.7380919,45.5246989" id="Fill-34"></path>
                        <path d="M14.0212014,46.3939661 L14.8443816,46.3939661 L15.6675618,46.4581893 L15.1061484,46.7511374 L14.1704594,46.8074736 C14.1704594,46.8074736 12.7864311,46.6007198 14.0212014,46.3939661" id="Fill-35"></path>
                    </g>
                </g>
            </g>
        </g>
    </g>
</svg>